<svg xmlns="http://www.w3.org/2000/svg" xml:space="preserve" width="192" height="192" data-version="2">
    <path fill="#a68674" d="m32.03 126.55-.37-.09v-.38q0-.19.89-1.93t2.16-4.23q1.27-2.49 2.68-5.07 1.41-2.59 2.4-4.47t1.27-2.35l-23.03.66v-.75q.09-.38.19-.47.09-.1.18-.19 3.29-4.14 7.43-8.23 4.14-4.08 7.33-7.56 3.2-3.57 6.35-7.24 3.15-3.67 6.44-7.99 1.59-2.16 3-2.91 1.41-.76 3.11-.99 1.69-.24 4.23-.71l.56.38.09.66q.1.66-1.59 2.63-1.7 1.97-4.61 4.84t-6.49 6.2q-3.57 3.34-7.28 6.63-3.71 3.29-6.91 6.16t-5.45 4.84q-2.26 1.97-2.92 2.54l20.5-.38 6.11-11.94q.75-1.31 2.44-1.5 1.69-.19 2.91-.28l.66.19v.65q0 .1-.84 1.88-.85 1.79-2.03 4.09-1.17 2.31-2.16 4.19-.98 1.88-1.27 2.35h2.73q.56 0 .56.37 0 .38-.37 1.13-.19.38-.66.38l-3.29.09q-.56 1.03-1.83 3.67-1.27 2.63-2.73 5.59t-2.68 5.26q-1.22 2.31-1.69 2.78-.19.18-1.5.56-1.32.38-2.68.66-1.37.28-1.84.28" paint-order="stroke"/>
    <rect width="38.945" height="54.9" x="-19.473" y="-27.45" fill="none" rx="0" ry="0" transform="translate(38.003 99.6)"/>
    <path fill="#a68674" d="M73.77 142.06q-5.45 0-10.76-1.27t-9.59-4.18q-4.28-2.92-6.82-7.85-2.53-4.94-2.53-12.27 0-5.26 1.78-9.87 1.79-4.6 4.7-7.47 2.92-2.87 6.21-2.87 1.12 0 1.12.57 0 .56-1.22.94-2.35.56-4.56 2.86-2.21 2.31-3.62 6.07-1.41 3.76-1.41 8.93 0 6.2 2.31 10.15 2.3 3.95 5.97 6.2 3.66 2.26 7.75 3.15 4.09.89 7.76.89 10.34 0 18.94-3.24 8.6-3.24 15.51-8.98 6.91-5.73 12.03-13.2 5.12-7.48 8.51-16.03l.18-.56q-1.5.09-2.53.28-1.04.19-1.98.56-2.07.75-3.1.75-.56 0-.56-.75 0-1.31 1.36-2.77t3.34-1.55q.75 0 2.11-.05 1.36-.05 2.87-.05 1.78-4.51 3.85-9.3 2.07-4.8 4.04-9.12 1.98-4.32 3.48-7.52 1.51-3.2 2.16-4.51-5.17.56-10.71.98-5.55.43-10.91 1.32-5.35.89-10.15 2.87-8.83 3.66-12.83 9.63-3.99 5.97-3.99 13.3 0 4.61 2.53 7.62 2.54 3.01 6.68 3.01 3.76 0 6.58-2.31 2.82-2.3 4.46-5.83 1.65-3.52 1.65-7 0-1.13-.24-2.02-.23-.89-.42-1.27 0-.66.56-.66 1.23 0 1.65 1.74.42 1.74.42 3.43 0 3.76-2.02 7.43t-5.55 6.06q-3.52 2.4-7.94 2.4-3.95 0-7.19-2.02t-5.22-5.5q-1.97-3.48-1.97-7.71 0-6.01 2.73-10.67 2.72-4.65 7.47-7.94t10.67-4.98q5.73-1.69 11.89-2.35 6.16-.66 12.12-.99 5.97-.33 10.96-.8.94-1.69 2.39-3.48 1.46-1.78 3.25-3.05 1.78-1.27 3.66-1.27 1.41 0 2.45.7 1.03.71 1.03 2.21 0 2.26-1.74 3.72-1.74 1.45-4.37 2.21-2.63.75-5.17 1.12-1.03 1.98-2.44 5.55t-3.06 7.94q-1.64 4.37-3.29 8.84-1.64 4.46-3.05 8.32 3.19.19 7.47.42 4.28.24 8.79.47 4.51.24 8.6.42 4.09.19 6.72.19 1.03-2.63 2.16-5.45 5.83-14.19 10.72-22.37 4.89-8.18 7.8-9.12 3.76-1.22 5.17-1.22.56 0 .56.19 0 .28-1.31.94-.66.37-2.68 3.29-2.02 2.91-4.84 7.94t-5.92 11.61q-3.11 6.58-5.93 14.29 1.6 0 3.25-.1 1.64-.09 2.49-.19 1.03-.18 1.74-.47.7-.28 1.08-.28.47 0 .47.47 0 .28-.75.94-1.6 1.13-3.86 1.98-2.25.84-5.64 1.03-2.16 6.2-4.04 12.74-1.88 6.53-1.88 12.08 0 2.06.75 3.94t2.82 1.88q2.45 0 5.36-2.68 2.91-2.67 5.73-6.9 2.82-4.23 4.7-8.93 1.13 0 1.13.84-2.25 5.17-5.31 10.06-3.05 4.89-6.67 8.04-3.62 3.15-7.57 3.15-3.1 0-5.03-2.26-1.93-2.26-1.93-6.67 0-4.33 1.74-11 1.74-6.68 4.47-14.29-2.82-.09-6.96-.28-4.13-.19-8.74-.43-4.61-.23-8.84-.42-4.23-.19-7.05-.28-.37 1.13-.75 2.16-.37 1.04-.66 1.88-2.82 8.27-7.85 16.08-5.02 7.8-12.03 14.1-7 6.29-15.98 10.01-8.97 3.71-19.69 3.71m71.82-84.51q.94-.18 1.64-.37.71-.19 1.36-.38 1.7-.56 2.4-1.31.71-.76.71-1.32 0-1.13-1.32-1.13-.66 0-1.6.57-.94.56-1.88 1.88-.37.56-.7 1.08-.33.51-.61.98" paint-order="stroke"/>
    <rect width="145.88" height="92.12" x="-72.94" y="-46.06" fill="none" rx="0" ry="0" transform="translate(117.51 96.5)"/>
</svg>
